<?xml version="1.0" standalone="no"?>
<!DOCTYPE svg PUBLIC "-//W3C//DTD SVG 20010904//EN"
 "http://www.w3.org/TR/2001/REC-SVG-20010904/DTD/svg10.dtd">
<svg version="1.0" xmlns="http://www.w3.org/2000/svg"
 width="700.000000pt" height="700.000000pt" viewBox="0 0 700.000000 700.000000"
 preserveAspectRatio="xMidYMid meet">
<metadata>
Created by potrace 1.11, written by Peter Selinger 2001-2013
</metadata>
<g transform="translate(0.000000,700.000000) scale(0.100000,-0.100000)"
fill="#000000" stroke="none">
<path d="M3725 5925 c-96 -40 -170 -114 -201 -204 -11 -32 -77 -404 -117 -656
-3 -16 -8 -46 -11 -65 -3 -19 -8 -48 -11 -65 -3 -16 -39 -235 -81 -485 -42
-250 -78 -468 -80 -485 -4 -28 -17 -105 -29 -165 -3 -13 -7 -42 -10 -65 -10
-65 -15 -99 -20 -115 -4 -13 -13 -69 -20 -125 -2 -11 -8 -47 -13 -80 -6 -33
-14 -78 -17 -99 -3 -21 -7 -48 -10 -60 -2 -12 -7 -39 -10 -61 -3 -22 -7 -47
-10 -55 -4 -14 -6 -30 -21 -127 -3 -21 -10 -65 -16 -98 -5 -33 -12 -73 -15
-90 -3 -16 -18 -109 -35 -205 -16 -96 -31 -186 -32 -200 -2 -14 -7 -45 -12
-70 -5 -25 -9 -49 -10 -55 -1 -14 -16 -106 -20 -130 -2 -11 -6 -33 -9 -50 -3
-16 -7 -43 -10 -60 -3 -16 -12 -70 -20 -120 -8 -49 -17 -101 -19 -115 -3 -14
-7 -43 -11 -64 -3 -21 -7 -48 -10 -60 -7 -32 -14 -76 -21 -126 -3 -25 -9 -62
-14 -83 -13 -60 -4 -171 19 -222 101 -229 391 -285 566 -110 47 47 90 125 98
180 3 17 10 57 16 90 6 33 13 76 16 95 3 19 10 60 15 90 5 30 11 71 14 90 3
19 25 154 50 300 24 146 47 279 49 295 3 17 11 62 17 100 7 39 14 79 15 90 2
11 13 76 25 145 12 69 23 140 26 159 6 47 14 93 19 111 2 8 7 35 10 60 4 25
15 95 25 155 10 61 21 124 24 140 2 17 12 75 21 130 10 55 19 114 21 130 2 17
9 55 14 85 17 91 19 102 30 170 5 36 12 76 15 90 3 14 7 39 9 55 2 17 7 46 10
65 3 19 8 49 11 65 24 145 46 274 50 295 6 29 16 96 20 127 3 23 15 93 21 126
2 10 5 26 8 35 3 9 8 41 11 71 7 52 9 67 20 121 2 14 7 39 9 55 3 17 14 84 25
150 11 66 22 136 25 155 3 19 10 58 15 85 5 28 12 69 15 91 4 23 13 76 20 119
20 113 14 200 -17 268 -28 61 -96 135 -148 162 -92 48 -206 55 -294 20z"/>
<path d="M1993 5231 c-70 -24 -108 -51 -233 -165 -42 -38 -191 -170 -239 -212
-18 -16 -43 -38 -55 -49 -33 -29 -162 -144 -184 -164 -11 -9 -52 -45 -92 -81
-40 -36 -94 -83 -119 -106 -57 -51 -143 -128 -245 -218 -43 -39 -87 -78 -99
-89 -22 -18 -140 -123 -161 -142 -54 -49 -186 -166 -205 -181 -13 -10 -33 -29
-45 -40 -11 -12 -48 -45 -81 -74 -33 -29 -93 -82 -133 -118 -40 -36 -80 -70
-87 -76 -19 -14 -17 -16 85 -106 47 -41 103 -92 125 -112 22 -20 50 -45 63
-56 29 -26 141 -124 267 -237 55 -49 137 -121 180 -160 44 -38 100 -88 125
-111 25 -22 63 -56 84 -75 41 -36 60 -52 123 -109 21 -19 74 -66 118 -105 44
-38 86 -77 95 -85 9 -8 49 -44 90 -80 40 -36 78 -69 84 -75 6 -5 50 -44 96
-85 47 -41 87 -77 90 -80 36 -39 173 -146 213 -167 46 -24 64 -27 147 -28 85
0 101 3 150 28 136 70 211 201 197 348 -10 117 -62 189 -253 354 -67 58 -182
160 -349 310 -44 40 -96 85 -115 101 -19 16 -37 31 -40 35 -5 6 -58 53 -195
174 -163 144 -291 259 -315 282 l-24 25 49 45 c58 52 178 160 209 186 54 48
152 134 175 156 14 12 57 51 95 85 212 187 381 337 455 405 46 41 96 85 110
96 14 11 37 31 51 45 15 14 61 56 104 95 107 97 141 166 141 285 -1 70 -5 95
-27 142 -74 160 -263 244 -425 189z"/>
<path d="M4895 5147 c-80 -27 -162 -94 -202 -167 -69 -124 -48 -299 48 -401
19 -20 99 -94 179 -165 80 -71 150 -133 156 -139 6 -5 41 -37 79 -70 73 -64
161 -142 235 -209 25 -23 81 -72 125 -111 44 -38 85 -75 90 -81 6 -5 44 -39
85 -75 41 -35 81 -71 90 -79 9 -8 48 -44 88 -79 40 -35 72 -67 72 -71 0 -5
-93 -90 -207 -191 -115 -101 -228 -202 -253 -225 -25 -23 -63 -57 -85 -75 -22
-19 -42 -37 -45 -40 -3 -3 -68 -61 -145 -129 -77 -69 -142 -127 -145 -130 -3
-3 -61 -54 -130 -115 -69 -60 -130 -114 -136 -120 -6 -5 -47 -42 -91 -82 -59
-54 -88 -89 -111 -135 -69 -139 -46 -291 60 -399 51 -53 104 -82 176 -99 91
-21 207 4 277 58 22 17 123 103 149 127 42 38 208 186 240 215 22 19 50 44 61
55 12 11 53 47 91 80 38 33 89 78 114 101 43 39 168 150 314 279 37 33 78 69
90 80 60 54 128 115 181 160 32 28 66 57 74 66 9 9 59 53 111 100 52 46 97 86
100 89 3 3 43 39 90 80 47 41 87 77 90 80 3 3 41 37 85 75 115 101 107 92 92
107 -7 7 -46 42 -87 78 -40 36 -78 70 -84 75 -6 6 -49 44 -96 85 -46 41 -90
80 -96 85 -107 97 -177 158 -209 186 -22 19 -42 37 -45 40 -3 3 -48 43 -100
90 -109 96 -153 136 -184 164 -12 11 -53 47 -91 80 -37 33 -73 65 -79 70 -6 6
-92 82 -191 169 -99 88 -184 164 -190 170 -5 6 -28 26 -50 45 -22 19 -74 64
-115 101 -41 37 -93 84 -115 104 -22 19 -67 50 -100 68 -51 27 -72 32 -140 35
-47 2 -96 -3 -120 -10z"/>
</g>
</svg>
